<svg xmlns="http://www.w3.org/2000/svg" xmlns:xlink="http://www.w3.org/1999/xlink" viewBox="0 0 651.77 343.53"><defs><style>.cls-1,.cls-28{fill:none;}.cls-2{fill:url(#Nowa_próbka_gradientu);}.cls-12,.cls-3,.cls-39{fill:#00192f;}.cls-36,.cls-4,.cls-48,.cls-51,.cls-54{fill:#fff;}.cls-5{isolation:isolate;}.cls-6{fill:url(#linear-gradient);}.cls-7{fill:url(#linear-gradient-2);}.cls-8{fill:#254159;}.cls-9{fill:url(#Nowa_próbka_gradientu-2);}.cls-10,.cls-21,.cls-39{mix-blend-mode:darken;}.cls-10{fill:url(#linear-gradient-3);}.cls-11{fill:url(#radial-gradient);}.cls-12,.cls-22,.cls-30,.cls-40{opacity:0.2;}.cls-12,.cls-16,.cls-40{mix-blend-mode:multiply;}.cls-13{clip-path:url(#clip-path);}.cls-14{fill:#194092;}.cls-15{fill:#e20613;}.cls-16,.cls-32,.cls-34,.cls-35,.cls-36,.cls-37,.cls-38,.cls-47{opacity:0.3;}.cls-17{fill:url(#linear-gradient-4);}.cls-18{fill:#f29100;}.cls-19{fill:#f4c294;}.cls-20{fill:#e16f01;}.cls-21{opacity:0.4;fill:url(#linear-gradient-5);}.cls-23{fill:#fff498;}.cls-24{fill:url(#linear-gradient-6);}.cls-25,.cls-43{mix-blend-mode:lighten;}.cls-25{fill:url(#linear-gradient-7);}.cls-26{fill:url(#linear-gradient-8);}.cls-27{fill:url(#radial-gradient-2);}.cls-28{stroke:#b1b1b1;stroke-width:2px;}.cls-28,.cls-45{stroke-linecap:round;stroke-linejoin:round;}.cls-29{fill:url(#radial-gradient-3);}.cls-30{fill:#f5f5f5;}.cls-31{fill:#b1b1b1;}.cls-33{clip-path:url(#clip-path-2);}.cls-34{fill:url(#Nowa_próbka_gradientu_Kopiuj_3);}.cls-35{fill:url(#Nowa_próbka_gradientu_Kopiuj_3-2);}.cls-37{fill:url(#Nowa_próbka_gradientu_Kopiuj_3-3);}.cls-38{fill:url(#Nowa_próbka_gradientu_Kopiuj_3-4);}.cls-39{opacity:0.1;}.cls-40{fill:url(#radial-gradient-4);}.cls-41{fill:url(#Nowa_próbka_gradientu_Kopiuj);}.cls-42{fill:url(#linear-gradient-9);}.cls-43{fill:url(#radial-gradient-5);}.cls-44{fill:#14222e;}.cls-45{fill-opacity:0.6;stroke:#00192f;stroke-width:4px;fill:url(#linear-gradient-10);}.cls-46{fill:url(#Nowa_próbka_gradientu_Kopiuj-2);}.cls-47{fill:url(#Nowa_próbka_gradientu_Kopiuj_3-5);}.cls-48{font-size:146.06px;}.cls-48,.cls-51,.cls-54{font-family:Ubuntu;}.cls-48,.cls-56{letter-spacing:-5px;}.cls-49,.cls-54{letter-spacing:-4px;}.cls-50{letter-spacing:-1px;}.cls-51{font-size:67.84px;}.cls-52{fill:#633d00;}.cls-53{clip-path:url(#clip-path-3);}.cls-54{font-size:193.13px;}.cls-55{letter-spacing:-6px;}</style><radialGradient id="Nowa_próbka_gradientu" cx="8.32" cy="6.35" r="3.71" gradientTransform="translate(-0.92 -6.22) rotate(-4.11) scale(1 2.08)" gradientUnits="userSpaceOnUse"><stop offset="0" stop-color="#fff"/><stop offset="1" stop-color="#d9dde0"/></radialGradient><linearGradient id="linear-gradient" x1="90.01" y1="115.72" x2="227.98" y2="115.72" gradientUnits="userSpaceOnUse"><stop offset="0" stop-color="#002545"/><stop offset="0.42" stop-color="#324f69"/><stop offset="0.8" stop-color="#5a7186"/><stop offset="1" stop-color="#697e91"/></linearGradient><linearGradient id="linear-gradient-2" x1="89.37" y1="251.57" x2="252.59" y2="251.57" gradientUnits="userSpaceOnUse"><stop offset="0" stop-color="#002545"/><stop offset="0.09" stop-color="#123552"/><stop offset="0.4" stop-color="#516a80"/><stop offset="0.67" stop-color="#7f92a2"/><stop offset="0.88" stop-color="#9baab6"/><stop offset="1" stop-color="#a6b3be"/></linearGradient><radialGradient id="Nowa_próbka_gradientu-2" cx="105.36" cy="141.28" r="62.55" gradientTransform="translate(-20.77 -144.03) rotate(-4.11) scale(1 2.08)" xlink:href="#Nowa_próbka_gradientu"/><linearGradient id="linear-gradient-3" x1="99.03" y1="253.51" x2="99.03" y2="321.07" gradientUnits="userSpaceOnUse"><stop offset="0" stop-color="#fff"/><stop offset="1" stop-color="#a7b0b6"/></linearGradient><radialGradient id="radial-gradient" cx="93.71" cy="72.24" r="79.86" gradientTransform="translate(0 -91.02) scale(1 2.26)" gradientUnits="userSpaceOnUse"><stop offset="0" stop-color="#575756"/><stop offset="0.23" stop-color="#3c3c3b"/><stop offset="1"/></radialGradient><clipPath id="clip-path" transform="translate(0 2.31)"><path class="cls-1" d="M139.9,226.26V141L97.5,160.23,55.1,141v85.23L25.86,244.92l36.33,20L97.46,245.6l35.28,19.33,36.33-20Z"/></clipPath><linearGradient id="linear-gradient-4" x1="74.56" y1="118.6" x2="103.14" y2="92.38" gradientUnits="userSpaceOnUse"><stop offset="0" stop-color="#d4d8dc" stop-opacity="0.6"/><stop offset="0.49" stop-color="#697784" stop-opacity="0.8"/><stop offset="1" stop-color="#00192f"/></linearGradient><linearGradient id="linear-gradient-5" x1="92.15" y1="173.28" x2="163.93" y2="173.28" gradientUnits="userSpaceOnUse"><stop offset="0" stop-color="#bac1c7" stop-opacity="0.6"/><stop offset="0.15" stop-color="#afb7be" stop-opacity="0.62"/><stop offset="0.37" stop-color="#909ba5" stop-opacity="0.69"/><stop offset="0.63" stop-color="#5e6e7c" stop-opacity="0.8"/><stop offset="0.91" stop-color="#192f43" stop-opacity="0.95"/><stop offset="1" stop-color="#00192f"/></linearGradient><linearGradient id="linear-gradient-6" x1="30.05" y1="94.15" x2="37.96" y2="112.13" gradientUnits="userSpaceOnUse"><stop offset="0" stop-color="#3c3c3b"/><stop offset="0.23" stop-color="#353535"/><stop offset="0.56" stop-color="#232323"/><stop offset="0.94" stop-color="#050505"/><stop offset="1"/></linearGradient><linearGradient id="linear-gradient-7" x1="-2.55" y1="132.18" x2="35.01" y2="132.83" xlink:href="#linear-gradient-6"/><linearGradient id="linear-gradient-8" x1="232.27" y1="216.58" x2="172.45" y2="183.5" xlink:href="#linear-gradient-6"/><radialGradient id="radial-gradient-2" cx="123.54" cy="210.65" r="65.34" gradientTransform="translate(0 -265.43) scale(1 2.26)" xlink:href="#radial-gradient"/><radialGradient id="radial-gradient-3" cx="54.44" cy="220.49" r="61.83" gradientTransform="translate(0 -277.83) scale(1 2.26)" gradientUnits="userSpaceOnUse"><stop offset="0" stop-color="#575756"/><stop offset="0.33" stop-color="#3c3c3b"/><stop offset="1"/></radialGradient><clipPath id="clip-path-2" transform="translate(0 2.31)"><circle class="cls-1" cx="81.11" cy="78.69" r="12.28"/></clipPath><linearGradient id="Nowa_próbka_gradientu_Kopiuj_3" x1="32.4" y1="92.99" x2="39.9" y2="131.6" gradientUnits="userSpaceOnUse"><stop offset="0" stop-color="#fff"/><stop offset="1" stop-color="#d9dde0" stop-opacity="0.5"/></linearGradient><linearGradient id="Nowa_próbka_gradientu_Kopiuj_3-2" x1="30.43" y1="129.01" x2="44.29" y2="200.41" xlink:href="#Nowa_próbka_gradientu_Kopiuj_3"/><linearGradient id="Nowa_próbka_gradientu_Kopiuj_3-3" x1="114.24" y1="121.35" x2="125.02" y2="176.9" gradientTransform="matrix(-0.99, -0.11, -0.11, 0.99, 303.21, 15.27)" xlink:href="#Nowa_próbka_gradientu_Kopiuj_3"/><linearGradient id="Nowa_próbka_gradientu_Kopiuj_3-4" x1="187.82" y1="171.49" x2="198.63" y2="227.2" xlink:href="#Nowa_próbka_gradientu_Kopiuj_3"/><radialGradient id="radial-gradient-4" cx="83.2" cy="231.68" r="105.78" gradientTransform="translate(0 27.1) scale(1 0.88)" gradientUnits="userSpaceOnUse"><stop offset="0.34" stop-color="#d4d8dc" stop-opacity="0"/><stop offset="0.52" stop-color="#b6bdc4" stop-opacity="0.14"/><stop offset="0.77" stop-color="#647381" stop-opacity="0.53"/><stop offset="1" stop-color="#00192f"/></radialGradient><linearGradient id="Nowa_próbka_gradientu_Kopiuj" x1="38.18" y1="54.18" x2="149.33" y2="54.18" gradientTransform="translate(-0.38 13.03) rotate(-5)" gradientUnits="userSpaceOnUse"><stop offset="0" stop-color="#1d1d1b"/><stop offset="0.11" stop-color="#3c3c3b"/><stop offset="0.26" stop-color="#575756"/><stop offset="0.53" stop-color="#3c3c3b"/><stop offset="1"/></linearGradient><linearGradient id="linear-gradient-9" x1="54.01" y1="27.57" x2="135.72" y2="27.57" gradientTransform="translate(-0.38 13.03) rotate(-5)" gradientUnits="userSpaceOnUse"><stop offset="0" stop-color="#3f3f3f"/><stop offset="0.38" stop-color="#212c2a"/><stop offset="0.68" stop-color="#0f1514"/><stop offset="1"/></linearGradient><radialGradient id="radial-gradient-5" cx="78.06" cy="-10.5" r="96.39" gradientTransform="translate(-0.86 7.59) rotate(-5) scale(1 0.48)" gradientUnits="userSpaceOnUse"><stop offset="0" stop-color="#110e0c"/><stop offset="0.28" stop-color="#20211e"/><stop offset="0.86" stop-color="#010102"/><stop offset="1" stop-color="#090a0e"/></radialGradient><linearGradient id="linear-gradient-10" x1="54.01" y1="47.5" x2="134.05" y2="47.5" gradientTransform="translate(-0.38 13.03) rotate(-5)" gradientUnits="userSpaceOnUse"><stop offset="0" stop-color="#1d1d1b"/><stop offset="0.07" stop-color="#3c3c3b"/><stop offset="0.25" stop-color="#616160"/><stop offset="0.37" stop-color="#575756"/><stop offset="0.57" stop-color="#3e3e3d"/><stop offset="0.58" stop-color="#3c3c3b"/><stop offset="1"/></linearGradient><linearGradient id="Nowa_próbka_gradientu_Kopiuj-2" x1="38.18" y1="54.18" x2="149.33" y2="54.18" xlink:href="#Nowa_próbka_gradientu_Kopiuj"/><linearGradient id="Nowa_próbka_gradientu_Kopiuj_3-5" x1="75.53" y1="10.11" x2="99.81" y2="20.67" xlink:href="#Nowa_próbka_gradientu_Kopiuj_3"/><clipPath id="clip-path-3" transform="translate(0 2.31)"><polygon class="cls-1" points="177.62 36.32 223.66 36.32 230.16 49.49 630.16 49.49 630.16 168.84 177.62 168.84 177.62 36.32"/></clipPath><symbol id="oko" data-name="oko" viewBox="0 0 15.21 15.82"><circle class="cls-2" cx="7.72" cy="7.97" r="7.44"/><path class="cls-3" d="M15.21,8l0,0.53a4.25,4.25,0,0,1-.07.63A6.57,6.57,0,0,1,15,10a8.08,8.08,0,0,1-.85,2.19,7.58,7.58,0,0,1-2,2.32A7.16,7.16,0,0,1,8.61,15.8c-0.34,0-.65,0-1,0a7.56,7.56,0,0,1-1-.13,7.47,7.47,0,0,1-2-.67,8.66,8.66,0,0,1-3.2-2.85A8.31,8.31,0,0,1,0,8,8.47,8.47,0,0,1,.24,5.7a8.38,8.38,0,0,1,.91-2.09A8,8,0,0,1,4.49.69,7.64,7.64,0,0,1,8.6.06a7.41,7.41,0,0,1,3.49,1.37,7.69,7.69,0,0,1,2,2.34A8.06,8.06,0,0,1,15,6a6.44,6.44,0,0,1,.15.85,4.18,4.18,0,0,1,.06.63Zm-0.1,0,0-.52A5.8,5.8,0,0,0,14.8,6a7,7,0,0,0-3.18-3.88,8,8,0,0,0-3.09-1,7.5,7.5,0,0,0-3.61.54,7.1,7.1,0,0,0-3,2.46A7.5,7.5,0,0,0,.55,8a8,8,0,0,0,.23,2.09A7.83,7.83,0,0,0,1.65,12a6.59,6.59,0,0,0,3.17,2.53A7,7,0,0,0,6.68,15a7.53,7.53,0,0,0,1,0c0.27,0,.6,0,0.88-0.07a8.36,8.36,0,0,0,3.12-1.1,7.12,7.12,0,0,0,3.17-3.9,5.76,5.76,0,0,0,.28-1.44Z"/><circle class="cls-3" cx="6.27" cy="9.53" r="5.2"/><circle class="cls-4" cx="7.13" cy="8.77" r="1.06"/></symbol></defs><title>Logo_LinuxFest RGB</title><g class="cls-5"><g id="Warstwa_3" data-name="Warstwa 3"><polygon class="cls-6" points="620.46 38.63 87.06 38.63 87.06 192.82 641.61 192.82 641.61 60.77 620.46 38.63"/><polygon class="cls-7" points="532.29 185.94 139.35 185.94 139.35 317.2 513.15 317.2 532.29 298.07 532.29 185.94"/><polygon class="cls-8" points="641.5 185.94 532.29 185.94 532.29 256.93 651.77 256.93 651.77 197.15 651.77 196.22 641.5 185.94"/><path class="cls-9" d="M177.62,230.23c0,64.26-35.19,88.34-78.59,88.34s-78.59-24.08-78.59-88.34c0-42.64,37-93.41,38.61-134,0.65-16.66,1.11-32,.74-42.22-1.06-29.56,25-26.58,35.36-26.58,11.74,0,33.33,2.78,39.84,20.77,5.85,16.17,9.14,33.56,15.64,51C167,142.92,177.62,196.69,177.62,230.23Z" transform="translate(0 2.31)"/><path class="cls-10" d="M177.62,230.23c0,64.26-35.19,88.34-78.59,88.34s-78.59-24.08-78.59-88.34c0-42.64,37-93.41,38.61-134,0.65-16.66,1.11-32,.74-42.22-1.06-29.56,25-26.58,35.36-26.58,11.74,0,33.33,2.78,39.84,20.77,5.85,16.17,9.14,33.56,15.64,51C167,142.92,177.62,196.69,177.62,230.23Z" transform="translate(0 2.31)"/><path class="cls-3" d="M177.82,230.23l0,2.12c0,1.4,0,3.47-.18,6.19a134.91,134.91,0,0,1-3.07,23.29,99.25,99.25,0,0,1-5.18,16,69.66,69.66,0,0,1-10.23,17,64.24,64.24,0,0,1-17.23,14.75,74.83,74.83,0,0,1-23.62,8.84,105.6,105.6,0,0,1-27.35,1.63,85.35,85.35,0,0,1-28.6-6.79A67.81,67.81,0,0,1,49,305.43a64.17,64.17,0,0,1-11.28-11.07,78.05,78.05,0,0,1-14-29,108,108,0,0,1-3-16.23,152.54,152.54,0,0,1-1-16.67,93.8,93.8,0,0,1,1.35-16.86A150.85,150.85,0,0,1,25,199c3.19-11,7.34-21.69,11.62-32.38s8.62-21.4,12.43-32.27,7-22,8.1-33.24c0.29-2.81.37-5.62,0.45-8.51L57.85,84C58,78.3,58.1,72.6,58.12,66.94q0-4.25-.05-8.47,0-2.11-.12-4.2c0-1.53-.08-2.8,0-4.37a31.88,31.88,0,0,1,1.59-8.81,21.6,21.6,0,0,1,4.64-7.85,22,22,0,0,1,7.49-5.11,33.66,33.66,0,0,1,8.48-2.26c5.72-.82,11.3-0.48,16.66-0.48a66,66,0,0,1,16.45,2.25,46.89,46.89,0,0,1,7.8,2.88,36.71,36.71,0,0,1,3.65,2l1.75,1.14L128.13,35a30,30,0,0,1,3.06,2.87,18.23,18.23,0,0,1,1.34,1.62c0.42,0.56.89,1.08,1.26,1.67l1.07,1.79a11.63,11.63,0,0,1,1,1.83l0.83,1.9c0.13,0.32.28,0.62,0.4,1l0.31,0.9c1.69,4.84,3.16,9.75,4.52,14.53,2.69,9.6,5.09,18.93,7.9,27.75q1,3.31,2.19,6.52l2.27,6.45,1.11,3.18,1,3.19c0.67,2.12,1.38,4.21,2,6.3,5.07,16.65,8.74,32.17,11.49,46s4.53,26,5.77,36.06c0.33,2.51.57,4.89,0.78,7.14s0.43,4.34.57,6.31,0.31,3.77.41,5.43l0.22,4.53c0.16,2.71.11,4.79,0.15,6.19Zm-0.4,0,0-2.12c-0.06-1.4,0-3.47-.2-6.17-0.23-5.4-.87-13.33-2.27-23.33s-3.62-22.08-6.79-35.77-7.46-29-12.93-45.36c-0.67-2.05-1.42-4.09-2.14-6.17L152,108.19,150.78,105l-2.37-6.39q-1.23-3.26-2.34-6.61c-3-8.93-5.44-18.33-8.19-27.82-1.39-4.76-2.84-9.49-4.55-14.26L133,49c-0.09-.26-0.23-0.54-0.34-0.8L132,46.62a9,9,0,0,0-.83-1.56l-0.91-1.52c-0.32-.5-0.72-0.94-1.07-1.41A14.57,14.57,0,0,0,128,40.74a25.75,25.75,0,0,0-2.62-2.46L124,37.15l-1.54-1a32.46,32.46,0,0,0-3.23-1.81,42.66,42.66,0,0,0-7.08-2.62,64.16,64.16,0,0,0-15.37-2.2c-5.46-.06-10.84-0.41-16.05.3S70.47,32.24,67,35.88,62,44.76,61.68,50c-0.11,1.24-.06,2.79-0.06,4.09s0.07,2.85.08,4.28c0,2.85,0,5.7-.06,8.56-0.11,5.71-.31,11.42-0.54,17.15l-0.37,8.6c-0.13,2.84-.26,5.79-0.6,8.7-1.4,11.65-5,22.82-9,33.67S42.45,156.58,38,167.19s-8.58,21.3-11.82,32.17a131.15,131.15,0,0,0-3.84,16.46c-0.23,1.38-.45,2.76-0.59,4.15L21.51,222l-0.16,2.07-0.14,2.07,0,2.1,0,2.08,0.05,2.08a134.41,134.41,0,0,0,1.25,16.47,106,106,0,0,0,3.34,15.87c3,10.27,7.67,19.89,14.24,27.71a63.66,63.66,0,0,0,23.72,17.55,85.49,85.49,0,0,0,27.44,6.46l3.4,0.2c1.13,0.06,2.3.06,3.45,0.09l0.86,0H99.7l1.68,0c1.12,0,2.23,0,3.34-.11a95.92,95.92,0,0,0,13-1.39,75.3,75.3,0,0,0,23-7.85,59.22,59.22,0,0,0,9.41-6.29l1.08-.86,1-.91c0.67-.61,1.36-1.19,2-1.82,1.25-1.28,2.52-2.51,3.63-3.85a68.25,68.25,0,0,0,10.54-16.36,86.92,86.92,0,0,0,5.52-15.69,121.21,121.21,0,0,0,3.31-23.14c0.19-2.69.17-4.78,0.21-6.17Z" transform="translate(0 2.31)"/><path class="cls-11" d="M56.14,122.46c5.4-18,5-34.64,11.66-30.07C80.23,101,97.5,82,97.5,82S111,96.11,125.32,92.53c4.5-1.13,10-6.1,12.48-9.38,7.3,5,10,12.34,14.88,21.61,6.59,12.64,9.14,33.2,9.14,33.2s-19.5-77.5-27.51-87-34.71-14.4-49.89-9.12S59.43,45,59.78,54,59,89.3,58.3,99s-4.43,24.45-4.43,24.45" transform="translate(0 2.31)"/><path class="cls-3" d="M55.95,122.4c1.38-5.61,2.4-11.28,3.32-17,0.47-2.86.95-5.71,1.67-8.6a16.53,16.53,0,0,1,1.65-4.37,4.23,4.23,0,0,1,2.27-1.94,3.45,3.45,0,0,1,1.7-.07,5,5,0,0,1,1.37.51c0.2,0.11.39,0.22,0.57,0.34l0.44,0.27c0.32,0.2.54,0.31,0.84,0.46a10.3,10.3,0,0,0,1.79.7,11.39,11.39,0,0,0,3.82.43A19.69,19.69,0,0,0,83.05,91a40,40,0,0,0,7-4.52q1.65-1.29,3.21-2.72c1-.94,2.06-1.95,3-2.92a1.75,1.75,0,0,1,2.48-.1l0.06,0.05,0,0c0.6,0.61,1.33,1.27,2,1.87s1.45,1.2,2.2,1.77a42.71,42.71,0,0,0,4.7,3.09A28.89,28.89,0,0,0,118,91.15a18.45,18.45,0,0,0,2.68.16,17.17,17.17,0,0,0,2.66-.21c0.44,0,.87-0.17,1.31-0.25a8.81,8.81,0,0,0,1.24-.37,14.77,14.77,0,0,0,2.32-1.09,28.38,28.38,0,0,0,4.47-3.22,30.8,30.8,0,0,0,3.87-3.94l0.07-.09a1.47,1.47,0,0,1,2-.26,27.9,27.9,0,0,1,3.09,2.61,27.46,27.46,0,0,1,2.66,3,36.14,36.14,0,0,1,2.21,3.28c0.68,1.12,1.3,2.27,1.88,3.42,1.18,2.3,2.23,4.63,3.31,6.93l1.65,3.46c0.54,1.16,1.11,2.28,1.58,3.51s0.94,2.41,1.37,3.62,0.8,2.44,1.19,3.66,0.74,2.45,1.05,3.7,0.64,2.48.94,3.72,0.57,2.49.84,3.74,0.51,2.51.75,3.76c0.48,2.51.91,5,1.25,7.58a0.62,0.62,0,0,1-1.22.24h0c-1.25-4.92-2.6-9.81-3.95-14.71s-2.8-9.76-4.24-14.63c-2.86-9.74-5.94-19.41-9.07-29-1.58-4.81-3.22-9.6-5-14.32-0.88-2.36-1.79-4.7-2.78-7-0.5-1.14-1-2.26-1.57-3.34a16.83,16.83,0,0,0-1.77-2.86A16.94,16.94,0,0,0,130.35,50a26.74,26.74,0,0,0-3-1.89,41.1,41.1,0,0,0-6.67-2.85,68.4,68.4,0,0,0-14.42-3,60.5,60.5,0,0,0-14.67.16c-1.2.16-2.38,0.39-3.55,0.65q-0.87.21-1.73,0.45L84.57,44c-2.45.82-5,1.52-7.5,2.11s-5,1.09-7.47,1.63-4.87,1.11-6.38,2.2a3.44,3.44,0,0,0-1.4,2,6,6,0,0,0-.19,1.46v1.83c0,2.58,0,5.15-.11,7.69-0.32,10.19-.95,20.34-1.75,30.49-0.21,2.52-.4,5.1-0.72,7.62s-0.82,5.07-1.33,7.57c-1,5-2.24,9.94-3.65,14.83a0.2,0.2,0,0,1-.25.14,0.2,0.2,0,0,1-.14-0.23c1-5,1.92-10,2.64-15,0.36-2.5.65-5,.86-7.5s0.27-5,.37-7.57c0.17-5.07.29-10.14,0.36-15.21s0.18-10.14.17-15.2c0-2.53,0-5-.1-7.54l0-1,0-1a9.66,9.66,0,0,1,.26-2.32,7.29,7.29,0,0,1,2.71-4.18,13.59,13.59,0,0,1,4-2c1.31-.44,2.58-0.76,3.84-1.07,2.52-.59,5-1.1,7.39-1.71s4.78-1.29,7.13-2.11l1.88-.62q1-.29,1.95-0.53c1.31-.31,2.61-0.58,3.93-0.76A64.71,64.71,0,0,1,106.71,38a68.15,68.15,0,0,1,15.3,3.4,45,45,0,0,1,7.27,3.24,30.62,30.62,0,0,1,3.41,2.24,21.12,21.12,0,0,1,3.07,2.91A20,20,0,0,1,138,53.38c0.59,1.19,1.11,2.39,1.62,3.58,1,2.39,1.89,4.8,2.74,7.22C144,69,145.52,73.89,147,78.77c2.93,9.76,5.45,19.61,8,29.45l7.44,29.57-1.22.23a137.57,137.57,0,0,0-2.82-14.94q-0.9-3.7-2-7.32c-0.4-1.2-.8-2.4-1.25-3.58s-0.9-2.36-1.41-3.49-1.07-2.28-1.63-3.42l-1.82-3.35c-1.21-2.25-2.4-4.5-3.67-6.66-0.64-1.08-1.29-2.15-2-3.17a33.84,33.84,0,0,0-2.22-2.93,24.67,24.67,0,0,0-2.54-2.58,24.93,24.93,0,0,0-2.87-2.16l2.1-.36a30.53,30.53,0,0,1-4.13,4.59A31.72,31.72,0,0,1,130,92.39,17.6,17.6,0,0,1,127,93.84a11.45,11.45,0,0,1-1.56.47c-0.52.1-1,.25-1.57,0.31a20.72,20.72,0,0,1-3.18.26,22,22,0,0,1-3.16-.18,27.71,27.71,0,0,1-3.09-.58c-1-.27-2-0.56-3-0.92a35.13,35.13,0,0,1-5.57-2.61,46.25,46.25,0,0,1-5.06-3.38q-1.21-.93-2.35-1.92C97.73,84.61,97,84,96.24,83.17l2.55,0c-1.07,1.14-2.13,2.13-3.24,3.13s-2.26,1.94-3.45,2.84a43.21,43.21,0,0,1-7.68,4.7,22.21,22.21,0,0,1-9,2.27,14.25,14.25,0,0,1-4.74-.72,13,13,0,0,1-2.21-1c-0.34-.18-0.75-0.43-1-0.63L67,93.45l-0.35-.23a1.54,1.54,0,0,0-1.08-.3,1.9,1.9,0,0,0-.95.84,14.54,14.54,0,0,0-1.57,3.65c-0.83,2.69-1.43,5.52-2.11,8.33s-1.33,5.64-2.08,8.45-1.58,5.59-2.54,8.33A0.2,0.2,0,0,1,55.95,122.4Z" transform="translate(0 2.31)"/><polygon class="cls-12" points="114.32 216.94 58.31 225.03 44.15 239.11 38.32 258.46 62.14 268.49 97.46 248.71 132.86 268.49 156.52 257.93 114.32 216.94"/><g class="cls-13"><path class="cls-14" d="M167.39,258.13c-47.09,23-92.71,23-139.82,0V120.36c47.11,23,92.73,23,139.82,0V258.13Z" transform="translate(0 2.31)"/><path class="cls-4" d="M167.39,120.36a134.25,134.25,0,0,1-17.15,8C138.7,144,126.66,159,113.7,173.55q0-17.92,0-35.84a202.64,202.64,0,0,1-32.54,0q0,18.66,0,37.32a529,529,0,0,1-38.6-47.51,135,135,0,0,1-15-7.15V139c8.57,13.17,17.56,26.1,27.21,38.5a157.86,157.86,0,0,1-27.21-11.61v47.73a157.9,157.9,0,0,0,27,11.54c-8.79,5.61-17.53,11.09-27,15.55v17.44a134,134,0,0,0,17.77,8.26,368.2,368.2,0,0,0,35.82-26.18q0,17.63,0,35.26a202.61,202.61,0,0,0,32.54,0q0-17.94,0-35.87a357.58,357.58,0,0,0,37,26.36,134.33,134.33,0,0,0,16.7-7.84V240.89c-9.7-4.41-18.64-9.9-27.66-15.53a157.7,157.7,0,0,0,27.66-11.75V165.88a157.76,157.76,0,0,1-27.52,11.71c9.7-12.7,18.92-25.79,27.52-39.26v-18Z" transform="translate(0 2.31)"/><path class="cls-15" d="M72.26,181.87a658.64,658.64,0,0,1-44.68-61.51v12C38.08,148.47,49.06,164,60.8,179.26,64.89,180.37,68.83,181.24,72.26,181.87Z" transform="translate(0 2.31)"/><path class="cls-15" d="M122.77,229.59c14.09,10.73,28.55,20.94,44.62,28.55h0V247a225.54,225.54,0,0,1-33.16-20C130.15,228.08,126.21,229,122.77,229.59Z" transform="translate(0 2.31)"/><path class="cls-15" d="M81.16,231c-2.1-.25-5.41-0.69-9.36-1.44-14.06,10.79-28.34,20.67-44.23,28.62h0c4.14,2.24,6.23,3.27,10.42,5.16,15.5-8.63,29.46-19,43.17-30.16V231Z" transform="translate(0 2.31)"/><path class="cls-15" d="M113.7,183.24c2-.23,5-0.64,8.72-1.31a631.14,631.14,0,0,0,45-60.45v-1.11c-4,2.14-5.94,3.13-9.95,5-13.56,19.23-27.78,37.81-43.74,55.12v2.81Z" transform="translate(0 2.31)"/><path class="cls-15" d="M167.39,176c-19.84,9.78-38.71,15.61-60.66,18q0-27.83,0-55.65a114.77,114.77,0,0,1-18.6,0q0,27.83,0,55.65c-22-2.41-40.8-8.25-60.56-18v27.47c19.75,9.74,38.6,15.58,60.56,18q0,27.33,0,54.65a114.76,114.76,0,0,0,18.6,0q0-27.33,0-54.65c22-2.39,40.82-8.21,60.66-18V176Z" transform="translate(0 2.31)"/></g><g class="cls-16"><path class="cls-17" d="M97.1,107c-12.05,0-22.52-5.55-27.41-11.7,0,0,8.92,17.4,33.23,16.19,12.56-.62,20.06-7.61,22.41-16.19,0,0-.88,1.29-0.92,1.29C119.5,102.79,109.15,107,97.1,107Z" transform="translate(0 2.31)"/></g><path class="cls-18" d="M97.5,83.14C88.67,92,77.54,96,69,94.33c4.6,7.59,15.59,12.95,28.48,12.95s23.88-5.36,28.48-12.95C117.46,96,106.33,92,97.5,83.14Z" transform="translate(0 2.31)"/><path class="cls-19" d="M97.5,83.84c0.95,0.81,1.92,1.24,2.92,2-1-.83-2-1.71-2.92-2.66-0.95.95-1.92,1.82-2.92,2.66C95.58,85.08,96.55,84.65,97.5,83.84Z" transform="translate(0 2.31)"/><path class="cls-20" d="M97.5,104.76c-12.52,0-23.28-4.26-28.36-10.4l-0.12,0c4.6,7.59,15.59,12.95,28.48,12.95s23.88-5.36,28.48-12.95l-0.12,0C120.78,100.5,110,104.76,97.5,104.76Z" transform="translate(0 2.31)"/><path class="cls-21" d="M155.35,112.57c-4-11.35-14-47.58-17.2-54.79S97.1,28.4,97.1,28.4c0.4,13.85-1.23,35.53.4,54.74,0.42,5,1.49,18,2.46,19.53a2,2,0,0,1-.68,2c0,0.76.07,1.75,0.09,2.51l-0.63,0c0.38,15.51,1.14,31.71-1.24,53-1.58,14.15-1.76,63.19,0,85.36,0.9,11.7,2.73,43,1.57,51.19s-8.18,21.48-12.12,21.11c0,0,27.64,1.59,39.46-3.06s28.43-13.8,34.49-23.54,17.9-23.88,16.65-54.86-22.15-123.88-22.15-123.88" transform="translate(0 2.31)"/><g class="cls-22"><path class="cls-23" d="M97.46,102.72c-12.52,0-23.28-3.43-28.36-8.38H69c4.6,6.11,15.59,10.42,28.48,10.42s23.88-4.31,28.48-10.42h-0.12C120.74,99.3,110,102.72,97.46,102.72Z" transform="translate(0 2.31)"/></g><path class="cls-12" d="M140,64.88c-1.51-5-6.64-20.17-10.39-17.57s-28.67.17-32.08,0-16.38,2.74-16.34,4.6-5.72,2.62-7.74,3.15-12.35-1.58-13.52,0,0,10.49,0,10.49L59.77,69.3c7.85,2.17,24.37,4.56,36.51,4.69S121.6,72.34,140,64.88Z" transform="translate(0 2.31)"/><path class="cls-24" d="M28.82,193.51C7.7,165.36,1,103.44,1,103.44S52.77,90.65,59.7,83.81s-1.13-10.12,8-11.21c0,3.64-1.89,5-1.43,7.78s0.81,5,2.7,6.41-0.15.54-2.7,2.56-26.17,24.29-38.48,23.24c12.32,8.45,20.76,31,21.82,39.41" transform="translate(0 2.31)"/><path class="cls-25" d="M28.82,193.51C7.7,165.36,1,103.44,1,103.44S52.77,90.65,59.7,83.81s-1.13-10.12,8-11.21c0,3.64-1.89,5-1.43,7.78s0.81,5,2.7,6.41-0.15.54-2.7,2.56-26.17,24.29-38.48,23.24c12.32,8.45,20.76,31,21.82,39.41" transform="translate(0 2.31)"/><path class="cls-3" d="M28.65,193.63l-1.87-2.32c-0.62-.78-1.17-1.62-1.76-2.43s-1.11-1.66-1.66-2.5-1.06-1.7-1.55-2.57c-1-1.72-1.95-3.49-2.87-5.27s-1.76-3.59-2.56-5.43-1.55-3.68-2.31-5.54S12.64,163.85,12,162s-1.28-3.78-1.89-5.68-1.19-3.81-1.72-5.73-1.06-3.85-1.56-5.78-1-3.86-1.43-5.81-0.86-3.89-1.26-5.84S3.38,129.21,3,127.25s-0.67-3.93-.95-5.9-0.55-3.94-.8-5.92c-0.5-4-.95-7.9-1.28-11.88v-0.06a1,1,0,0,1,.77-1c3.15-.67,6.31-1.36,9.44-2.14,1.57-.39,3.14-0.75,4.7-1.17l4.68-1.25c3.11-.85,6.21-1.77,9.3-2.71s6.16-1.94,9.19-3,6.06-2.19,9-3.39a77.8,77.8,0,0,0,8.63-4,20.48,20.48,0,0,0,1.9-1.21,7.94,7.94,0,0,0,.79-0.64,4.62,4.62,0,0,0,.34-0.35l0.41-.44a7.92,7.92,0,0,0,1.85-3.48,8.18,8.18,0,0,0,.12-2c0-.39,0-0.82,0-1.37a4.06,4.06,0,0,1,.61-2,4.19,4.19,0,0,1,1.56-1.38,7.91,7.91,0,0,1,1.47-.57,18.7,18.7,0,0,1,2.64-.52,1.78,1.78,0,0,1,2,1.52q0,0.09,0,.17v0.08a12.43,12.43,0,0,1-.87,4.68,9.93,9.93,0,0,0-.5,1.67,3.05,3.05,0,0,0,0,.66,1.74,1.74,0,0,0,0,.33l0,0.17,0,0.25A15.3,15.3,0,0,0,69,83.83a3.38,3.38,0,0,0,.75,1.08,6.47,6.47,0,0,0,.63.5,4.57,4.57,0,0,1,.66.6l0.13,0.16a2.66,2.66,0,0,1,.17.26,2.23,2.23,0,0,1,.19.43,2.15,2.15,0,0,1-.12,1.64,2.4,2.4,0,0,1-.2.33,1.89,1.89,0,0,1-.21.24,2.44,2.44,0,0,1-.57.42,5.2,5.2,0,0,1-.8.33L69.23,90a6.72,6.72,0,0,0-.72.32,6,6,0,0,0-1.28.9l-3.06,2.73c-2.06,1.85-4.2,3.62-6.35,5.37s-4.35,3.47-6.63,5.07-4.62,3.16-7,4.6a50.77,50.77,0,0,1-7.66,3.8A27.86,27.86,0,0,1,32.26,114a15.41,15.41,0,0,1-4.65.33l1.16-3.25L30,112l1.16,1,1.11,1,1.05,1.08a46.27,46.27,0,0,1,3.77,4.6c0.58,0.8,1.13,1.61,1.65,2.44s1,1.67,1.52,2.51c1,1.69,1.88,3.42,2.72,5.17a82.2,82.2,0,0,1,4.3,10.79c0.58,1.84,1.11,3.7,1.55,5.59a37.25,37.25,0,0,1,1,5.72,0.2,0.2,0,0,1-.18.22,0.2,0.2,0,0,1-.21-0.17,44.6,44.6,0,0,0-1.5-5.5c-0.6-1.81-1.28-3.59-2-5.34s-1.53-3.48-2.34-5.19-1.69-3.39-2.62-5a68.19,68.19,0,0,0-6.25-9.36,43.13,43.13,0,0,0-3.7-4.12l-1-.93-1-.88-1.07-.83-1.1-.76a1.79,1.79,0,0,1,1.11-3.25h0A16.85,16.85,0,0,0,35,109.17a55.91,55.91,0,0,0,7-3.71c2.27-1.41,4.49-2.94,6.67-4.54S53,97.68,55.15,96s4.18-3.47,6.27-5.22l3.16-2.68a10.13,10.13,0,0,1,2.13-1.4,10.79,10.79,0,0,1,1.18-.48L68.41,86c0.14,0,.32-0.12.16,0a1.49,1.49,0,0,0-.36.28,2.33,2.33,0,0,0-.16.19,1.65,1.65,0,0,0-.17.27,1.86,1.86,0,0,0-.2.78,1.88,1.88,0,0,0,.09.61,1.85,1.85,0,0,0,.14.31,1.4,1.4,0,0,0,.1.15l0,0.06a0.51,0.51,0,1,1-.1-0.09A10,10,0,0,1,67,87.72a7.33,7.33,0,0,1-1.53-2.31,18.46,18.46,0,0,1-1.07-4.47l0-.26,0-.35a5,5,0,0,1,0-.7,6.84,6.84,0,0,1,.13-1.39A13.23,13.23,0,0,1,65.13,76a8.7,8.7,0,0,0,.73-3.35l2,1.77a17.26,17.26,0,0,0-2.12.35A4.67,4.67,0,0,0,65,75a1.4,1.4,0,0,0-.27.17,0.51,0.51,0,0,0-.09.33c0,0.26,0,.64,0,1.05a11.24,11.24,0,0,1-.29,2.8A9.55,9.55,0,0,1,63.16,82a13.82,13.82,0,0,1-1.71,2.2L61,84.67l-0.25.24-0.28.25a11,11,0,0,1-1.13.83,23.18,23.18,0,0,1-2.27,1.25,80,80,0,0,1-9.19,3.59c-3.08,1-6.19,2-9.3,2.9l-9.34,2.68-9.34,2.64-4.67,1.32-4.66,1.34-9.33,2.7L2,103.33c0.57,3.89,1.26,7.79,2,11.67s1.57,7.74,2.35,11.61S8,134.32,8.9,138.16c0.44,1.92.87,3.84,1.34,5.76s0.94,3.83,1.45,5.73l1.54,5.7c0.55,1.89,1.08,3.79,1.68,5.66s1.18,3.75,1.8,5.62,1.27,3.72,2,5.55,1.41,3.67,2.15,5.49,1.55,3.61,2.41,5.38c0.41,0.9.84,1.78,1.31,2.64s0.87,1.77,1.38,2.61,1,1.71,1.46,2.57L29,193.4A0.2,0.2,0,0,1,28.65,193.63Z" transform="translate(0 2.31)"/><use width="15.21" height="15.82" transform="translate(108.43 73.76)" xlink:href="#oko"/><use width="15.21" height="15.82" transform="translate(73.1 73.76)" xlink:href="#oko"/><path class="cls-26" d="M166.75,152.68c21.55,45.41,51.37,75,51.37,75s-29-.29-41.57-18" transform="translate(0 2.31)"/><path class="cls-3" d="M166.93,152.59c1.08,1.59,2.1,3.2,3.1,4.83s1.94,3.29,3,4.87,2,3.22,2.93,4.85,2,3.21,3,4.83,1.92,3.26,2.94,4.85,2,3.24,2.88,4.89l2.8,4.95c0.92,1.66,1.83,3.33,2.83,4.95s2,3.24,3,4.83,2.17,3.11,3.31,4.63,2.35,3,3.54,4.46,2.48,2.87,3.75,4.29,2.57,2.79,3.86,4.18l3.88,4.14c1.3,1.37,2.58,2.76,3.89,4.11s2.65,2.7,4,4a2,2,0,0,1-1.4,3.45h0c-1.08,0-2,0-3.06-.1s-2-.14-3-0.24c-2-.21-4-0.52-5.93-0.91s-3.91-.88-5.83-1.48c-1-.29-1.92-0.6-2.86-1s-1.88-.72-2.81-1.09-1.85-.79-2.75-1.26-1.79-.94-2.67-1.42-1.74-1-2.56-1.6-1.64-1.17-2.44-1.78-1.55-1.29-2.28-2a29.9,29.9,0,0,1-2.09-2.16,29.38,29.38,0,0,1-3.43-4.88,0.2,0.2,0,0,1,.31-0.24h0c0.69,0.7,1.33,1.42,2,2.06s1.43,1.28,2.16,1.9,1.5,1.18,2.29,1.7,1.59,1,2.39,1.54,1.63,1,2.48,1.37,1.7,0.83,2.55,1.23,1.73,0.75,2.62,1.08,1.77,0.66,2.66,1,1.8,0.58,2.71.84,1.82,0.5,2.74.74,1.84,0.43,2.77.64,1.86,0.39,2.79.55c1.86,0.35,3.74.64,5.62,0.89,0.94,0.12,1.88.24,2.82,0.33s1.91,0.17,2.78.21l-1.44,3.45c-1.36-1.44-2.62-2.86-3.88-4.31s-2.48-2.93-3.7-4.4-2.38-3-3.49-4.56-2.26-3.09-3.34-4.67-2.22-3.11-3.29-4.69-2.21-3.1-3.34-4.64-2.23-3.09-3.39-4.6-2.29-3-3.49-4.54-2.37-3-3.52-4.53-2.33-3-3.4-4.63-2.11-3.19-3.11-4.82-1.92-3.31-2.85-5-1.84-3.35-2.68-5.08-1.65-3.47-2.47-5.19-1.53-3.5-2.21-5.28-1.36-3.57-2-5.39A0.2,0.2,0,0,1,166.93,152.59Z" transform="translate(0 2.31)"/><path class="cls-27" d="M153.08,105.93a82.69,82.69,0,0,0-8.56,15.47s-23.65,40.86-24.38,113.92c10.73,7.5,39.23,12.26,46.79,46.25,6.79-13.07,10.7-30,10.7-51.35C177.62,198.4,168,148.35,153.08,105.93Z" transform="translate(0 2.31)"/><path class="cls-3" d="M153,106.43c-0.7,1.13-1.4,2.26-2,3.41s-1.43,2.57-2.09,3.88-1.3,2.63-1.9,4c-0.3.67-.59,1.34-0.87,2s-0.55,1.36-.79,2v0l0,0.09c-1.07,2.13-2.09,4.36-3,6.59-0.5,1.11-.92,2.25-1.38,3.37s-0.9,2.26-1.32,3.4l-1.28,3.41-1.18,3.45c-0.81,2.29-1.5,4.63-2.23,6.94s-1.38,4.66-2,7c-0.32,1.17-.67,2.34-1,3.52L131,163.08c-0.59,2.36-1.21,4.71-1.68,7.1l-1.51,7.14-1.33,7.18c-0.48,2.39-.8,4.8-1.2,7.2s-0.79,4.8-1.12,7.22l-1,7.25-0.47,3.63-0.34,3.64-0.68,7.29c-0.24,2.43-.29,4.87-0.45,7.31s-0.28,4.88-.37,7.32l-0.33-.64a36.12,36.12,0,0,0,3.59,2.19c1.25,0.67,2.52,1.32,3.81,1.94,2.58,1.24,5.18,2.46,7.75,3.77,1.28,0.66,2.56,1.32,3.82,2s2.51,1.44,3.73,2.2l1.82,1.18,1.78,1.24,1.75,1.29,1.7,1.36,1.64,1.43c0.54,0.49,1.06,1,1.59,1.5,1,1,2.05,2.06,3,3.17,0.49,0.54.94,1.11,1.4,1.68s0.91,1.14,1.32,1.74c0.88,1.17,1.65,2.41,2.43,3.65l1.09,1.9c0.35,0.64.67,1.3,1,2s0.63,1.32.93,2,0.61,1.33.86,2l0.78,2.05c0.24,0.69.46,1.39,0.69,2.08,0.49,1.38.8,2.81,1.2,4.22l-2.54-.33a89.87,89.87,0,0,0,7.08-20.9c0.75-3.61,1.38-7.26,1.81-10.93s0.71-7.37.87-11.07c0-1.85.13-3.7,0.11-5.56,0-.91,0-1.88,0-2.75l-0.07-2.81-0.07-2.81-0.16-2.77c-0.12-1.85-.19-3.68-0.36-5.55l-0.46-5.57-0.58-5.56c-0.18-1.85-.47-3.7-0.67-5.55s-0.44-3.7-.72-5.55L171.7,188l-0.89-5.53c-0.6-3.69-1.24-7.37-1.91-11s-1.39-7.35-2.16-11-1.54-7.32-2.36-11-1.68-7.29-2.54-10.94-1.79-7.27-2.8-10.88l-1.45-5.43-1.53-5.41q-0.75-2.71-1.58-5.4Zm0.25-.56c1.35,3.51,2.76,7,4,10.55l1.89,5.31c0.61,1.78,1.19,3.57,1.77,5.36,1.19,3.57,2.24,7.18,3.35,10.78s2.12,7.22,3.08,10.87,1.91,7.29,2.77,11,1.68,7.34,2.49,11c0.4,1.84.75,3.69,1.12,5.54s0.75,3.69,1.06,5.55l1,5.57,0.87,5.59c0.3,1.86.56,3.73,0.8,5.6s0.51,3.74.69,5.62l0.58,5.64c0.17,1.88.3,3.77,0.45,5.66s0.23,3.79.31,5.69l0.12,2.85,0,2.81,0,2.81c0,1,0,1.91,0,2.88,0,1.9-.13,3.8-0.21,5.69a126.62,126.62,0,0,1-3.2,22.59,99,99,0,0,1-3.32,11,75.6,75.6,0,0,1-4.74,10.43h0a1.37,1.37,0,0,1-2.54-.34c-0.33-1.36-.56-2.76-1-4.1-0.19-.68-0.37-1.36-0.57-2l-0.66-2c-0.2-.67-0.49-1.31-0.74-2s-0.5-1.31-.81-1.94-0.57-1.28-.89-1.91l-1-1.87c-0.7-1.22-1.4-2.44-2.19-3.6q-0.57-.89-1.21-1.73c-0.42-.57-0.83-1.14-1.29-1.68-0.88-1.1-1.82-2.16-2.79-3.18-0.5-.49-1-1-1.51-1.49L149.41,253l-1.63-1.36-1.68-1.3-1.73-1.24-1.78-1.17c-1.2-.76-2.42-1.49-3.66-2.19s-2.49-1.38-3.77-2c-2.55-1.28-5.15-2.46-7.75-3.68a59.08,59.08,0,0,1-7.71-4.05,0.73,0.73,0,0,1-.33-0.62v0c0-2.45,0-4.91.06-7.36s0-4.91.09-7.37l0.33-7.36,0.17-3.68,0.3-3.68,0.62-7.36c0.22-2.45.62-4.88,0.92-7.33s0.62-4.89,1.1-7.3l1.31-7.27c0.51-2.41,1.08-4.81,1.61-7.21s1.16-4.79,1.79-7.17l0.95-3.57c0.33-1.19.71-2.36,1.07-3.54,0.73-2.35,1.41-4.72,2.24-7s1.58-4.67,2.5-7l1.33-3.45,1.43-3.41c0.46-1.14,1-2.27,1.49-3.38s1-2.25,1.58-3.35c1.1-2.22,2.19-4.41,3.5-6.56l-0.06.12c0.31-.71.64-1.37,1-2s0.68-1.33,1-2c0.7-1.31,1.43-2.61,2.2-3.88s1.55-2.53,2.4-3.76,1.73-2.42,2.62-3.59a0.2,0.2,0,0,1,.28,0A0.22,0.22,0,0,1,153.27,105.87Z" transform="translate(0 2.31)"/><path class="cls-28" d="M67.61,78.69c-5.34,1.53-3.47,15.59-3.14,28.59s-1.45,16-5.11,22.55" transform="translate(0 2.31)"/><path class="cls-29" d="M54.93,119.86c-10,35.6-34.5,75.68-34.5,110.37,0,20.89,3.74,37.51,10.25,50.46,7.66-34.57,36.16-37.68,47-45.13C77.73,170.67,59.1,128.49,54.93,119.86Z" transform="translate(0 2.31)"/><path class="cls-3" d="M55,120.51c-0.79,3.21-1.57,6.41-2.57,9.58-1,3.39-2.07,6.72-3.21,10.05s-2.32,6.63-3.59,9.9-2.48,6.56-3.76,9.82L38,169.65c-1.24,3.27-2.56,6.51-3.76,9.78s-2.37,6.56-3.57,9.83c-0.59,1.64-1.11,3.3-1.66,4.94s-1.11,3.3-1.59,5-1,3.32-1.5,5l-1.34,5c-0.5,1.67-.77,3.37-1.15,5.06l-0.54,2.54c-0.18.85-.26,1.71-0.4,2.56-0.22,1.71-.55,3.42-0.69,5.14l-0.36,5.17c-0.11,3.48-.15,7,0,10.45s0.42,7,.91,10.41a95.57,95.57,0,0,0,1.88,10.28,81.57,81.57,0,0,0,7.2,19.5l-1.67.21c0.34-1.4.58-2.83,1-4.22l0.59-2.09,0.69-2.07c0.22-.69.49-1.37,0.76-2s0.51-1.37.83-2l0.91-2,1-1.95c0.71-1.28,1.44-2.55,2.28-3.76s1.69-2.4,2.61-3.55,1.93-2.22,3-3.28L45,252l1.66-1.46,1.71-1.39,1.77-1.32q1.8-1.28,3.66-2.43l1.88-1.12,1.92-1.05c1.29-.68,2.59-1.33,3.89-2,2.61-1.25,5.25-2.39,7.83-3.55a48.4,48.4,0,0,0,7.24-3.8l-0.88,1.66-0.2-7.38c-0.06-2.46-.12-4.92-0.28-7.37l-0.4-7.37c-0.14-2.45-.42-4.9-0.6-7.35s-0.37-4.9-.68-7.34l-0.83-7.33-1-7.3c-0.3-2.44-.78-4.86-1.18-7.28l-0.62-3.64-0.71-3.62c-0.48-2.41-.92-4.84-1.49-7.23l-0.82-3.6c-0.26-1.2-.54-2.4-0.84-3.6-0.61-2.38-1.14-4.79-1.83-7.16s-1.3-4.76-2-7.11-1.47-4.71-2.23-7.05c-0.37-1.18-.79-2.34-1.19-3.5s-0.81-2.33-1.26-3.48Q56.28,123.65,55,120.51Zm0.14-.74c1.17,2.19,2.28,4.41,3.3,6.68,0.53,1.12,1,2.26,1.52,3.4s1,2.28,1.46,3.43l1.4,3.46,1.29,3.5c0.88,2.33,1.65,4.69,2.44,7S68,152,68.74,154.41s1.34,4.79,2,7.19,1.21,4.83,1.79,7.25l0.85,3.64,0.73,3.66c0.47,2.45,1,4.88,1.4,7.34l1.21,7.37,1,7.41c0.35,2.47.58,4.95,0.8,7.43s0.47,5,.61,7.45l0.39,7.46c0.17,2.49.17,5,.19,7.47l0.06,7.47v0a2,2,0,0,1-.88,1.64,51.62,51.62,0,0,1-8,4c-2.64,1.13-5.26,2.21-7.82,3.37q-1.92.87-3.79,1.81t-3.68,2q-1.8,1-3.53,2.19l-1.7,1.19L48.74,253l-1.59,1.32-1.53,1.39c-1,1-2,1.94-2.87,3a41.36,41.36,0,0,0-2.61,3.22c-0.84,1.1-1.59,2.27-2.32,3.45l-1.05,1.8-1,1.86c-0.33.61-.59,1.26-0.89,1.9s-0.58,1.27-.82,1.93l-0.75,2-0.65,2c-0.46,1.33-.76,2.7-1.15,4.06l0,0.07a0.88,0.88,0,0,1-1.65.13,99.2,99.2,0,0,1-6.81-20c-0.79-3.43-1.4-6.9-1.92-10.39s-0.88-7-1.16-10.5-0.47-7-.53-10.56l0.09-5.33c0.05-1.78.29-3.53,0.44-5.3,0.1-.88.14-1.77,0.28-2.65l0.42-2.62c0.3-1.74.5-3.52,0.91-5.24l1.13-5.19c0.44-1.71.93-3.41,1.39-5.12,0.24-.85.46-1.71,0.71-2.55l0.82-2.52c0.56-1.67,1.07-3.37,1.66-5,1.17-3.32,2.39-6.63,3.69-9.9,2.52-6.57,5.3-13,8-19.46l4.15-9.65,4.08-9.66c1.28-3.25,2.68-6.46,3.89-9.73s2.38-6.59,3.59-9.88a0.2,0.2,0,0,1,.26-0.13A0.21,0.21,0,0,1,55.11,119.77Z" transform="translate(0 2.31)"/><circle class="cls-30" cx="81.03" cy="80.37" r="12.31"/><path class="cls-31" d="M81,65.6l0.87,0.05a7.19,7.19,0,0,1,1,.13,11.48,11.48,0,0,1,1.4.3A13.49,13.49,0,0,1,91.63,71a12.72,12.72,0,0,1,2.32,5.61,15.33,15.33,0,0,1,.14,1.69,12.45,12.45,0,0,1-.1,1.66,12.83,12.83,0,0,1-.91,3.46,13.77,13.77,0,0,1-1.88,3.18,13.34,13.34,0,0,1-6.27,4.33,14.73,14.73,0,0,1-3.89.66,15.08,15.08,0,0,1-2-.11,14,14,0,0,1-2-.38,15,15,0,0,1-3.64-1.6,13.86,13.86,0,0,1-3-2.55,14.32,14.32,0,0,1-2.09-3.25,12.77,12.77,0,0,1-1-3.61,13.59,13.59,0,0,1-.12-1.81V78l0-.2,0-.39c0-.27,0-0.5.09-0.8a11.6,11.6,0,0,1,1-3.28,12.22,12.22,0,0,1,1.62-2.64,13.15,13.15,0,0,1,4-3.35,13.86,13.86,0,0,1,3.69-1.36,12.48,12.48,0,0,1,1.42-.24,7.16,7.16,0,0,1,1.06-.08H81Zm0,0.3L80.17,66a6.83,6.83,0,0,0-1,.15,7,7,0,0,0-1.34.35,10.33,10.33,0,0,0-3.23,1.76,11.73,11.73,0,0,0-2.94,3.56,13.51,13.51,0,0,0-.94,2.39l-0.18.64-0.12.66c-0.11.45-.11,0.86-0.17,1.28,0,0.21,0,.51,0,0.76v0.6c0,0.08,0-.08,0-0.05v0.15a10.38,10.38,0,0,0,.15,1.41A11.9,11.9,0,0,0,72.75,85,12.91,12.91,0,0,0,75,87.14a11.42,11.42,0,0,0,2.83,1.45,11.64,11.64,0,0,0,1.54.38,12.73,12.73,0,0,0,1.66.19,12.42,12.42,0,0,0,3.25-.4,12.1,12.1,0,0,0,3-1.32,12.33,12.33,0,0,0,2.47-2.1,12,12,0,0,0,1.75-2.66,11.25,11.25,0,0,0,.92-2.93,11.11,11.11,0,0,0,.17-1.56c0-.44,0-1,0-1.46a12.5,12.5,0,0,0-1.67-5.28,11.65,11.65,0,0,0-3.24-3.52,10.78,10.78,0,0,0-3.38-1.61A7.51,7.51,0,0,0,82.91,66a6.84,6.84,0,0,0-1-.11L81,65.9h0Z" transform="translate(0 2.31)"/><g class="cls-32"><g class="cls-33"><rect class="cls-4" x="79.23" y="56.92" width="5.42" height="41.25" transform="matrix(0.31, -0.95, 0.95, 0.31, -17.16, 133.78)"/><rect class="cls-4" x="79.26" y="61.82" width="2.17" height="41.25" transform="translate(-22.91 135.65) rotate(-71.98)"/><polygon class="cls-4" points="102.7 82.73 63.47 69.96 63.81 68.93 103.03 81.7 102.7 82.73"/></g></g><path class="cls-34" d="M63.18,83.14c0.31,1-3.3,3.78-6.86,5.68C40.34,97.39,3.13,105,3.13,105s4.57,29.73,5.28,32.72-2.68-28-1.27-30.46C13.3,107.49,42,102.4,55.49,92.36,60.59,88.56,62,86.86,63.18,83.14Z" transform="translate(0 2.31)"/><path class="cls-35" d="M54.85,129.83s-22.26,54-25.59,69.37c-3.4,15.67-6.28,40-5.72,45.69,4.22-20.41,12.9-54.54,16.12-65.4C42.42,170.2,51.62,150,55.1,141c0.49-1.27,12.12,33.09,12.55,32,1.68-4.39-9.37-34.94-9.35-35Z" transform="translate(0 2.31)"/><path class="cls-36" d="M58.31,138h0Z" transform="translate(0 2.31)"/><path class="cls-37" d="M163.29,157.82c-3-15.63-12.15-40.23-12.15-40.23s-5.72,15.62-9.59,29.29c-1.79,6.34,6.49-10.54,9.56-17.51A280.11,280.11,0,0,1,162.23,172c4,22.58,10.09,53.57,10.1,52.86C172.46,218,170.89,197.93,163.29,157.82Z" transform="translate(0 2.31)"/><path class="cls-38" d="M189.36,195.73c-5.48-8.65-16.63-26.89-16.63-26.89l2.51,12.58a76.08,76.08,0,0,0,9.5,15.87c6.07,7.67,28,27.52,28,27.52S196,206.15,189.36,195.73Z" transform="translate(0 2.31)"/><path class="cls-39" d="M145,309.84c-1.08-3.52-1.68-11.18-1.68-15.89a2.64,2.64,0,0,0-2.64-2.64c0,18.58,2.68,22.14,5.63,24.75,3.68,3.25,5.28,4.66,13.49,12.41-0.9-15.37-13.94-13.77,12.5-5.76C162.7,316.44,154.16,308.51,145,309.84Z" transform="translate(0 2.31)"/><path class="cls-40" d="M176.73,211.64c2.45,20.39-17.8,56.45-50.74,69.94-35.85,14.68-83.09,5.54-96.72-3.89a92.68,92.68,0,0,0,16.86,22.82C45.75,302.42,44,308,44,308l2.2,0.72,2.85,0.45s0.82-3.62,1.07-5l1,0.78c8.6,6.91,22.08,10.57,30.07,12.15,25.53,5.06,44.34.1,58.3-7.79a5,5,0,0,0,.57,2.23l5.12-1.13a32.06,32.06,0,0,1-1-3.95,66.86,66.86,0,0,0,9.47-7.2C188.57,268.46,174.28,191.24,176.73,211.64Z" transform="translate(0 2.31)"/><path class="cls-41" d="M138,49.92a58.84,58.84,0,0,1,12-2.51c6.21-.54,5.43,3,4,5.18s-10,7.56-19.14,8.36-22.57,3.43-33.64,4.4l-3.55.31c-11.08,1-24.74.71-33.89,1.51s-18.5-3-20.3-4.91-3.18-5.25,3-5.79a58.87,58.87,0,0,1,12.28.38" transform="translate(0 2.31)"/><path class="cls-3" d="M138,49.73s0.56-.27,1.64-0.71a47.71,47.71,0,0,1,4.79-1.62c1.05-.31,2.23-0.59,3.53-0.85,0.67-.13,1.29-0.24,2.09-0.36l1.07-.11c0.43,0,.87,0,1.31,0a5.07,5.07,0,0,1,3,1,3.42,3.42,0,0,1,1.09,1.75,4.28,4.28,0,0,1,0,1.88,6.88,6.88,0,0,1-.49,1.58c-0.11.24-.23,0.48-0.36,0.71l-0.2.34,0,0-0.1.14,0,0.07-0.1.13A8.44,8.44,0,0,1,154,55a14.71,14.71,0,0,1-1.16,1,34.86,34.86,0,0,1-11.18,5.44,29.38,29.38,0,0,1-6.72,1c-2.23.07-4.43,0.19-6.74,0.35-4.59.32-9.32,0.89-14.11,1.6L106.9,65.5c-2.42.41-4.88,0.78-7.32,1.1-4.86.73-9.85,1.27-14.68,1.52s-9.6.44-14.17,0.73c-2.28.16-4.52,0.27-6.67,0.46l-1.71.1c-0.58,0-1.2,0-1.79,0-1.17-.05-2.29-0.14-3.4-0.29a36.56,36.56,0,0,1-12-3.67,12.52,12.52,0,0,1-2.63-1.79,4,4,0,0,1-.35-0.35L42,63.05c-0.14-.18-0.35-0.45-0.49-0.67a6.94,6.94,0,0,1-.75-1.48A4.31,4.31,0,0,1,40.51,59a3.43,3.43,0,0,1,.78-1.91A5,5,0,0,1,44,55.59c0.43-.12.84-0.15,1.24-0.23l1.16-.08c0.73,0,1.38,0,2.07,0,1.33,0,2.54.11,3.63,0.23,2.17,0.24,3.86.51,5,.74s1.74,0.39,1.74.39a0.2,0.2,0,0,1-.06.4S58.19,57,57,57s-2.83,0-5,.1c-1.06.07-2.24,0.15-3.49,0.29-0.6.07-1.3,0.16-2,.26l-1,.18c-0.3.09-.63,0.16-0.91,0.27a2.36,2.36,0,0,0-1.2.78,0.5,0.5,0,0,0,0,.32,1.44,1.44,0,0,0,.17.56,3.93,3.93,0,0,0,.48.75l0.31,0.35,0.23,0.23,0.13,0.1a11,11,0,0,0,2,1.05A30.65,30.65,0,0,0,51.91,64a40.42,40.42,0,0,0,5.73,1c1,0.1,2,.15,3,0.16h1.47L63.7,65c2.26-.19,4.55-0.31,6.87-0.34,4.64-.09,9.4-0.09,14.22-0.12s9.68,0,14.6-.16c2.46-.09,4.89-0.21,7.33-0.4s4.85-.49,7.24-0.83c4.79-.67,9.46-1.58,14-2.5,2.25-.45,4.55-0.89,6.74-1.21a36.68,36.68,0,0,0,6-1.45,46.22,46.22,0,0,0,5.45-2.15,30.66,30.66,0,0,0,4.72-2.67c0.34-.25.69-0.48,1-0.73l0.22-.18,0.15-.14L152.4,52l0.21-.25,0.11-.13,0.05-.06-0.05.07,0,0,0.14-.21c0.09-.14.18-0.29,0.26-0.43a3.89,3.89,0,0,0,.33-0.83,1.39,1.39,0,0,0,.06-0.58,0.51,0.51,0,0,0-.11-0.3,2.38,2.38,0,0,0-1.32-.54c-0.29-.06-0.6-0.06-0.89-0.1h-1.07c-0.59,0-1.31,0-1.92.09-1.27.09-2.43,0.22-3.49,0.33-2.11.26-3.77,0.53-4.9,0.73s-1.74.32-1.74,0.32a0.2,0.2,0,0,1-.24-0.15A0.2,0.2,0,0,1,138,49.73Z" transform="translate(0 2.31)"/><path class="cls-42" d="M93.76,0.57C58,3.7,55,26.07,55.54,32.42S58,60.12,58,61c0,0,2.49,6.28,41.26,2.88s40.13-10,40.13-10l-2.5-28.57C136.37,18.95,129.47-2.55,93.76.57Z" transform="translate(0 2.31)"/><path class="cls-43" d="M93.76,0.57C58,3.7,55,26.07,55.54,32.42S58,60.12,58,61c0,0,2.49,6.28,41.26,2.88s40.13-10,40.13-10l-2.5-28.57C136.37,18.95,129.47-2.55,93.76.57Z" transform="translate(0 2.31)"/><path class="cls-44" d="M93.78,0.77l-5.2.7A17,17,0,0,0,86,2l-2.53.61a36.45,36.45,0,0,0-5,1.58l-1.22.44c-0.4.15-.78,0.37-1.18,0.54L73.81,6.28a17,17,0,0,0-2.22,1.3L69.44,9l-2,1.6c-0.32.27-.67,0.52-1,0.81l-0.88.9a23.72,23.72,0,0,0-1.71,1.83l-1.53,2a29.37,29.37,0,0,0-2.48,4.27,22.86,22.86,0,0,0-1,2.27,18.59,18.59,0,0,0-.75,2.33,27.51,27.51,0,0,0-.83,4.8l-0.06,1.2c0,0.39,0,.77,0,1.16l0.21,2.59,0.36,5.24c0.12,1.75.19,3.49,0.29,5.24l0.27,5.24L59,60.91l-0.06-.26a0.24,0.24,0,0,0,0-.07l0,0,0,0.05,0.15,0.16c0.11,0.11.27,0.22,0.4,0.33a7.47,7.47,0,0,0,1,.59,14.22,14.22,0,0,0,2.34.87c0.82,0.23,1.65.45,2.5,0.6a24.63,24.63,0,0,0,2.56.43c0.86,0.12,1.72.22,2.59,0.28s1.73,0.17,2.6.2c1.74,0.08,3.48.14,5.23,0.12h2.62l2.62-.11C85.28,64,87,64,88.77,63.81s3.48-.27,5.22-0.47l5.21-.56,5.2-.69c1.75-.21,3.45-0.51,5.17-0.77s3.43-.54,5.14-0.85,3.42-.61,5.11-1,3.38-.74,5.06-1.12c0.84-.19,1.66-0.44,2.49-0.65s1.65-.46,2.45-0.73,1.61-.52,2.38-0.83,1.53-.62,2.27-1a14.71,14.71,0,0,0,2-1.14,6.42,6.42,0,0,0,.78-0.62c0.07-.09.19-0.2,0.24-0.26l0.05-.07,0,0v0a1.25,1.25,0,0,0-.08.26l0,0.58c-0.34-3.48-.72-7-1-10.45l-0.92-10.45-0.4-5.23-0.2-2.52c-0.06-.43-0.1-0.89-0.17-1.28L134.47,23a26.37,26.37,0,0,0-1.58-4.55,18.42,18.42,0,0,0-1.12-2.17,21.63,21.63,0,0,0-1.31-2.07,29.16,29.16,0,0,0-3.14-3.79l-1.84-1.68a23.67,23.67,0,0,0-2-1.51l-1-.74c-0.35-.23-0.73-0.42-1.1-0.63l-2.22-1.24-2.36-1a17,17,0,0,0-2.41-.89L111.9,2c-0.42-.11-0.83-0.26-1.25-0.33l-1.28-.22a36.71,36.71,0,0,0-5.15-.71l-2.61-.17A17.26,17.26,0,0,0,99,.57l-5.23.2h0Zm0-.4L99,0.06C99.43,0,99.87,0,100.31,0l1.32,0,2.64,0c1.77-.06,3.51.25,5.28,0.36l1.32,0.12c0.44,0,.87.16,1.31,0.23l2.62,0.49a18.11,18.11,0,0,1,2.59.67c0.86,0.26,1.72.51,2.58,0.79l2.49,1.07c0.41,0.19.84,0.35,1.24,0.56L124.89,5a26.41,26.41,0,0,1,2.35,1.43l2.22,1.65a32,32,0,0,1,3.87,4A18,18,0,0,1,135,14.36a22,22,0,0,1,1.4,2.43,25.42,25.42,0,0,1,2,5.28l0.33,1.47c0.09,0.46.13,0.87,0.2,1.31l0.27,2.7,0.51,5.22,0.91,10.45c0.31,3.48.53,7,.8,10.46v0.17a1.13,1.13,0,0,1,0,.42,3.41,3.41,0,0,1-.72,1.39,8.78,8.78,0,0,1-.66.7,10.29,10.29,0,0,1-1.3,1,18.48,18.48,0,0,1-2.59,1.39c-0.86.37-1.73,0.74-2.6,1s-1.73.59-2.6,0.83-1.74.51-2.61,0.7-1.74.44-2.62,0.62c-1.75.35-3.5,0.71-5.25,1l-2.63.42-2.63.33c-1.75.22-3.51,0.43-5.27,0.57s-3.53.33-5.27,0.42L99.39,65l-5.27.25c-1.75.1-3.52,0.11-5.27,0.16l-2.64.08-2.64,0q-2.64,0-5.28,0c-1.76,0-3.52-.11-5.28-0.15-0.88,0-1.76-.11-2.64-0.16S68.6,65,67.72,64.92l-1.32-.14-1.32-.2c-0.88-.11-1.76-0.31-2.64-0.51a19.38,19.38,0,0,1-2.63-.83,9.12,9.12,0,0,1-1.3-.63,7.92,7.92,0,0,1-.65-0.46,2.43,2.43,0,0,1-.68-0.82,0.44,0.44,0,0,1,0-.15V61.07l-1.3-10.42-0.64-5.21C55,43.7,54.73,42,54.55,40.23L54,35c-0.08-.88-0.17-1.72-0.24-2.63,0-.49-0.05-1-0.05-1.46l0.06-1.42a24.65,24.65,0,0,1,1-5.51,21.8,21.8,0,0,1,.93-2.63,17.31,17.31,0,0,1,1.19-2.52A31.82,31.82,0,0,1,60,14.23l1.89-2a26.33,26.33,0,0,1,2.05-1.81l1-.88c0.36-.28.75-0.51,1.12-0.77l2.26-1.49c0.79-.43,1.6-0.82,2.4-1.23a18.1,18.1,0,0,1,2.43-1.11L75.67,4c0.42-.15.82-0.34,1.25-0.46l1.28-.35,2.55-.7a19.58,19.58,0,0,1,2.58-.58l2.6-.49,1.29-.25c0.43-.08.87-0.11,1.3-0.17l5.21-.62h0Z" transform="translate(0 2.31)"/><path class="cls-45" d="M97.68,45.44c-25.4,2.22-36.36.79-41.06-.68L58,60.07S60.45,66.34,99.22,63s40.13-10,40.13-10c0-.5-0.69-7.92-1.34-15.3C133.64,39.91,123.08,43.22,97.68,45.44Z" transform="translate(0 2.31)"/><path class="cls-46" d="M152.6,47.33l-0.14.23c-1.41,2.16-9.77,7.54-18.74,8.33s-22.1,3.39-32.95,4.34l-3.48.3c-10.85.95-24.24,0.67-33.2,1.45S46,58.9,44.21,57L44,56.82c-3.22,1.14-2,3.74-.52,5.3C45.31,64,54.66,67.84,63.81,67s22.82-.54,33.89-1.51l3.55-.31c11.07-1,24.49-3.6,33.64-4.4s17.69-6.2,19.14-8.36C155.24,50.65,156,47.89,152.6,47.33Z" transform="translate(0 2.31)"/><path class="cls-3" d="M152.7,47.57l0,0.06c-0.06.1-.09,0.13-0.13,0.2s-0.16.24-.25,0.36-0.4.49-.62,0.69a16.13,16.13,0,0,1-1.32,1.22,32.1,32.1,0,0,1-2.91,2.09A37,37,0,0,1,141,55.37a30.64,30.64,0,0,1-7,1.79c-2.33.28-4.57,0.64-6.88,1l-6.9,1.15c-2.3.41-4.62,0.76-6.94,1.12s-4.65.72-7,1-4.72.53-7,.66l-3.52.22c-1.18.07-2.38,0.1-3.55,0.12-2.36.06-4.71,0.06-7.06,0-4.69-.05-9.37-0.18-14-0.13-2.34,0-4.64.08-7,.27-0.59,0-1.16.07-1.76,0.07s-1.21,0-1.81,0c-1.19-.07-2.38-0.16-3.56-0.33A43,43,0,0,1,50,60.73a32.36,32.36,0,0,1-3.35-1.3A18.27,18.27,0,0,1,45,58.6c-0.27-.14-0.54-0.35-0.81-0.52a6.55,6.55,0,0,1-.76-0.68l0.92,0.23a2.71,2.71,0,0,0-1.19.82,1.23,1.23,0,0,0-.08,1.1,4.15,4.15,0,0,0,.8,1.36,3.73,3.73,0,0,0,.57.57,4.29,4.29,0,0,0,.68.47,27.76,27.76,0,0,0,7.12,2.55,37.48,37.48,0,0,0,7.57,1,32.12,32.12,0,0,0,3.76-.13c1.32-.13,2.66-0.26,4-0.35,5.36-.36,10.67-0.51,16-0.74q4-.17,7.91-0.41c2.64-.13,5.21-0.33,7.87-0.58l3.95-.36q1.94-.18,3.9-0.4c2.62-.3,5.24-0.64,7.86-1,5.26-.65,10.52-1.41,15.87-1.89,1.31-.12,2.73-0.23,4-0.31,0.65-.07,1.36-0.09,2-0.19s1.22-.15,1.85-0.29A37.9,37.9,0,0,0,146,56.6a36.38,36.38,0,0,0,3.5-1.66,20.33,20.33,0,0,0,3.23-2.07,5.11,5.11,0,0,0,1.82-3,1.82,1.82,0,0,0-.39-1.54A3.18,3.18,0,0,0,152.7,47.57Zm-0.07-.44a3.83,3.83,0,0,1,2,.73,2.53,2.53,0,0,1,.85,2.1,5.58,5.58,0,0,1-.56,2.11,6.18,6.18,0,0,1-1.25,1.79,27.91,27.91,0,0,1-6.74,4.67,36.54,36.54,0,0,1-7.66,3c-0.66.19-1.36,0.33-2.06,0.48s-1.33.22-2,.33c-1.39.17-2.62,0.33-3.94,0.53-5.2.8-10.43,1.73-15.68,2.61-2.63.42-5.27,0.82-7.92,1.18q-2,.27-4,0.5c-1.31.15-2.66,0.26-4,.37-2.63.24-5.36,0.44-8,.56s-5.35.16-8,.2c-5.32.09-10.63,0.1-15.88,0.31-1.29,0-2.61.12-3.93,0.19a30.91,30.91,0,0,1-4.2,0,37,37,0,0,1-8.13-1.55,29.87,29.87,0,0,1-7.61-3.38A8,8,0,0,1,43,63.08a5.81,5.81,0,0,1-.78-0.89,6.08,6.08,0,0,1-1-2.14,3.14,3.14,0,0,1,.51-2.7A4.42,4.42,0,0,1,43.74,56l0.06,0a0.78,0.78,0,0,1,.87.25,8.71,8.71,0,0,0,2.59,1.84,31,31,0,0,0,3.14,1.35,34.71,34.71,0,0,0,6.68,1.68,28.65,28.65,0,0,0,3.43.32c0.57,0,1.13,0,1.7,0s1.16-.07,1.75-0.1c2.31-.2,4.68-0.4,7-0.54l14-.93,7-.55L95.41,59l3.48-.36c2.34-.25,4.61-0.45,6.92-0.76l6.92-.88,6.95-.94,7-.87c2.32-.26,4.72-0.47,7.06-0.61a31.92,31.92,0,0,0,6.65-1.15A40.4,40.4,0,0,0,146.79,51a31.48,31.48,0,0,0,3-1.65c0.48-.31,1-0.62,1.42-1,0.24-.17.42-0.35,0.64-0.53s0.2-.21.3-0.32l0.13-.15,0.13-.18h0A0.22,0.22,0,0,1,152.64,47.13Z" transform="translate(0 2.31)"/><path class="cls-47" d="M61.72,23.06c2.5-5.94,9-15.45,23.18-18.13C99.58,2.15,107,4.6,110,6.17s3.73,2.35-4.28,6.8-18.34,7-27.41,8.84A64.51,64.51,0,0,1,61.72,23.06Z" transform="translate(0 2.31)"/><path class="cls-18" d="M48.39,289a2.64,2.64,0,0,0-2.64,2.64c0,4.71-.59,12.37-1.68,15.89-9.14-1.33-17.68,6.6-27.31,12.87,13.06-4,12.5,5.76,12.5,5.76,2.51-2.24,14.22,0,8.62,10.87,13.38-5.08,22.34-21.68,11.19-27.82,1.9-6.06,2-17.44,2-17.56A2.64,2.64,0,0,0,48.39,289" transform="translate(0 2.31)"/><path class="cls-3" d="M48.4,289.17a2.46,2.46,0,0,0-1.12.3,2.4,2.4,0,0,0-.83.77,2.32,2.32,0,0,0-.38,1c0,0.35,0,.81,0,1.22,0,1.69,0,3.38-.1,5.06s-0.21,3.37-.39,5.06a33.48,33.48,0,0,1-.87,5.07,0.62,0.62,0,0,1-.63.46H44c-0.61,0-1.22-.1-1.84-0.09a15.53,15.53,0,0,0-1.83.15,13.74,13.74,0,0,0-1.81.36,13.72,13.72,0,0,0-1.77.55,16.13,16.13,0,0,0-1.73.7c-0.57.24-1.13,0.53-1.69,0.82-1.11.58-2.2,1.23-3.26,1.91-2.14,1.36-4.21,2.85-6.29,4.35s-4.17,3-6.33,4.49l-1-2.23,2.1-.57a9.19,9.19,0,0,1,1.08-.21l1.1-.18a9.07,9.07,0,0,1,1.13-.08c0.38,0,.76,0,1.15,0l1.18,0.12a6.1,6.1,0,0,1,1.19.26l0.59,0.17c0.19,0.08.39,0.17,0.58,0.26a5.12,5.12,0,0,1,1.11.64,5.24,5.24,0,0,1,1,.84L29,320.87l0.37,0.53a6.63,6.63,0,0,1,.62,1.12,9.21,9.21,0,0,1,.42,1.18,10,10,0,0,1,.25,1.21,7.87,7.87,0,0,1,.08,1.3L28.25,325a9.75,9.75,0,0,1,.83-0.56,5.71,5.71,0,0,1,.8-0.32,3.42,3.42,0,0,1,.77-0.19c0.25,0,.5-0.09.75-0.12a10.9,10.9,0,0,1,1.45,0,8.81,8.81,0,0,1,1.41.19,7.7,7.7,0,0,1,1.38.38l0.68,0.25L37,325a6.52,6.52,0,0,1,1.25.81,6.34,6.34,0,0,1,1.11,1.05,6.23,6.23,0,0,1,.89,1.29,6.16,6.16,0,0,1,.59,1.45,5.9,5.9,0,0,1,.27,1.51c0,0.25.06,0.51,0.06,0.76l-0.06.73A8,8,0,0,1,40.9,334l-0.35,1.35a8.8,8.8,0,0,1-.47,1.27l-0.52,1.24-2.34-2.63c0.65-.28,1.31-0.57,1.94-0.9s1.26-.68,1.86-1.06,1.2-.78,1.78-1.2,1.13-.88,1.68-1.34,1.07-1,1.57-1.46,1-1,1.45-1.57,0.9-1.1,1.32-1.67,0.8-1.16,1.16-1.76a17.6,17.6,0,0,0,1.7-3.75,11.07,11.07,0,0,0,.45-1.94,9.37,9.37,0,0,0,.09-1.92,7.42,7.42,0,0,0-.34-1.82,6,6,0,0,0-.33-0.85,5,5,0,0,0-.44-0.81,7.84,7.84,0,0,0-1.2-1.45l-0.75-.63-0.83-.56-0.15-.1a1.52,1.52,0,0,1-.59-1.74c0.27-.8.52-1.62,0.73-2.47s0.4-1.72.57-2.59c0.33-1.75.61-3.53,0.85-5.33s0.45-3.59.62-5.4l0.13-1.32a2.33,2.33,0,0,0,0-.57,2,2,0,0,0-.17-0.53,2.33,2.33,0,0,0-1.88-1.32,0.2,0.2,0,0,1,0-.4,3,3,0,0,1,3,2,3.47,3.47,0,0,1,.17.78l0.09,1.41c0.08,1.84.13,3.67,0.1,5.52s-0.09,3.69-.27,5.55c-0.09.93-.2,1.86-0.34,2.8a27,27,0,0,1-.59,2.83l-0.74-1.84L51,308.45c0.36,0.26.73,0.51,1.08,0.78a11.25,11.25,0,0,1,1.89,2,8.31,8.31,0,0,1,.75,1.17,8.09,8.09,0,0,1,.59,1.27,12,12,0,0,1,.41,1.33c0.09,0.45.18,0.9,0.23,1.36a13.15,13.15,0,0,1,0,2.69,14.92,14.92,0,0,1-.46,2.59,20.37,20.37,0,0,1-2,4.71,21.54,21.54,0,0,1-1.34,2.12c-0.48.68-1,1.34-1.53,2a28.75,28.75,0,0,1-3.53,3.47c-0.64.52-1.29,1-2,1.49s-1.37.92-2.09,1.32-1.45.78-2.2,1.13-1.52.65-2.3,0.94a1.89,1.89,0,0,1-2.37-2.56l0-.07,0.45-1a6.17,6.17,0,0,0,.42-1l0.3-1a4.34,4.34,0,0,0,.16-1l0.07-.47c0-.15,0-0.3,0-0.44a2.82,2.82,0,0,0-.12-0.86,2.89,2.89,0,0,0-.28-0.79,3,3,0,0,0-.45-0.71,3.17,3.17,0,0,0-.61-0.63,3.49,3.49,0,0,0-.75-0.53L35,327.59l-0.45-.18a4.56,4.56,0,0,0-.94-0.3,5.75,5.75,0,0,0-1-.17,7.92,7.92,0,0,0-1,0l-0.44.06a1.26,1.26,0,0,0-.4.08c-0.1,0-.26.06-0.33,0.11a0.46,0.46,0,0,1-.19.1l-0.75.2a1.41,1.41,0,0,1-1.72-1,1.45,1.45,0,0,1,0-.42,5.36,5.36,0,0,0,0-.76,7,7,0,0,0-.14-0.83,6.33,6.33,0,0,0-.25-0.78A3.81,3.81,0,0,0,27,323l-0.2-.33-0.26-.28a4.1,4.1,0,0,0-1.23-.93l-0.36-.19-0.4-.12a3.73,3.73,0,0,0-.83-0.21l-0.88-.12c-0.3,0-.62,0-0.92,0a6.85,6.85,0,0,0-.94,0l-1,.13a7.45,7.45,0,0,0-1,.15l-1.92.46-0.09,0a1.24,1.24,0,0,1-.94-2.25c2.15-1.35,4.27-2.8,6.4-4.24,1.07-.72,2.14-1.45,3.23-2.15s2.19-1.41,3.32-2.06,2.28-1.29,3.48-1.84c0.6-.28,1.19-0.56,1.82-0.79a17.64,17.64,0,0,1,1.88-.67,15.18,15.18,0,0,1,1.94-.51,15.22,15.22,0,0,1,2-.31,17,17,0,0,1,2-.08c0.67,0,1.34.12,2,.18l-0.72.46a32.48,32.48,0,0,0,1-4.82c0.25-1.65.44-3.31,0.59-5s0.27-3.34.34-5c0-.43,0-0.81.07-1.3a2.9,2.9,0,0,1,1.58-2.15,2.93,2.93,0,0,1,1.31-.29h0A0.2,0.2,0,0,1,48.4,289.17Z" transform="translate(0 2.31)"/><path class="cls-18" d="M140.71,291.31a2.64,2.64,0,0,1,2.64,2.64c0,4.71.59,12.37,1.68,15.89,9.14-1.33,17.68,6.6,27.31,12.87-13.06-4-12.5,5.76-12.5,5.76-2.51-2.24-14.23,0-8.62,10.87-13.38-5.08-22.34-21.68-11.19-27.82-1.9-6.06-2-17.43-2-17.56a2.64,2.64,0,0,1,2.64-2.64" transform="translate(0 2.31)"/><path class="cls-3" d="M140.72,291.11a2.93,2.93,0,0,1,1.31.29,2.9,2.9,0,0,1,1.58,2.14c0.06,0.49,0,.86.07,1.3,0.07,1.67.19,3.34,0.34,5s0.34,3.33.6,5a32.5,32.5,0,0,0,1,4.82l-0.72-.46c0.67-.06,1.34-0.17,2-0.18a17,17,0,0,1,2,.08,19.75,19.75,0,0,1,3.92.83,17.63,17.63,0,0,1,1.88.67c0.62,0.23,1.22.51,1.82,0.79,1.2,0.56,2.35,1.19,3.48,1.84s2.23,1.35,3.32,2.06,2.16,1.43,3.23,2.15c2.14,1.44,4.25,2.89,6.4,4.24a1.24,1.24,0,0,1-.94,2.25l-0.09,0-1.92-.46a7.46,7.46,0,0,0-1-.15l-1-.13a6.87,6.87,0,0,0-.94,0c-0.31,0-.62,0-0.92,0l-0.88.12a3.73,3.73,0,0,0-.83.21l-0.4.12-0.36.19a4.11,4.11,0,0,0-1.23.93l-0.26.28-0.2.33a3.8,3.8,0,0,0-.36.7,6.31,6.31,0,0,0-.25.78,7,7,0,0,0-.14.83,5.33,5.33,0,0,0,0,.76,1.41,1.41,0,0,1-1.76,1.42l-0.76-.2a0.46,0.46,0,0,1-.19-0.1c-0.07,0-.23-0.06-0.33-0.11a1.26,1.26,0,0,0-.4-0.08l-0.44-.06a7.92,7.92,0,0,0-1,0,5.76,5.76,0,0,0-1,.17,4.57,4.57,0,0,0-.94.3l-0.45.18-0.41.24a3.49,3.49,0,0,0-.75.53,3.16,3.16,0,0,0-.61.63,3,3,0,0,0-.45.71,2.89,2.89,0,0,0-.28.79,2.81,2.81,0,0,0-.12.86c0,0.15,0,.29,0,0.44l0.07,0.47a4.34,4.34,0,0,0,.16,1l0.3,1a6.18,6.18,0,0,0,.42,1l0.45,1,0,0.06a1.89,1.89,0,0,1-2.37,2.56c-0.77-.29-1.55-0.59-2.3-0.94s-1.49-.71-2.2-1.13-1.41-.86-2.09-1.32-1.34-1-2-1.49a28.76,28.76,0,0,1-3.53-3.47c-0.54-.63-1-1.29-1.53-2a21.5,21.5,0,0,1-1.34-2.12,20.37,20.37,0,0,1-2-4.71,14.92,14.92,0,0,1-.46-2.59,13.15,13.15,0,0,1,0-2.69c0.05-.45.14-0.91,0.23-1.36a12,12,0,0,1,.41-1.33,8.08,8.08,0,0,1,.59-1.27,8.32,8.32,0,0,1,.75-1.17,11.25,11.25,0,0,1,1.89-2c0.35-.27.72-0.52,1.08-0.78l1.14-.65L138.53,312a27,27,0,0,1-.59-2.83c-0.14-.94-0.25-1.87-0.34-2.8-0.18-1.86-.24-3.7-0.27-5.55s0-3.68.09-5.52l0.09-1.41a3.47,3.47,0,0,1,.17-0.78,3,3,0,0,1,3-2,0.2,0.2,0,0,1,0,.4,2.33,2.33,0,0,0-1.88,1.32,2,2,0,0,0-.17.53,2.34,2.34,0,0,0,0,.57l0.13,1.32c0.17,1.81.39,3.61,0.62,5.4s0.52,3.57.85,5.33c0.17,0.87.36,1.74,0.57,2.59s0.47,1.67.73,2.47a1.52,1.52,0,0,1-.59,1.74l-0.15.1-0.83.56-0.75.63a7.84,7.84,0,0,0-1.2,1.45,5,5,0,0,0-.44.81,6,6,0,0,0-.33.85,7.42,7.42,0,0,0-.34,1.82,9.39,9.39,0,0,0,.09,1.92,11.07,11.07,0,0,0,.45,1.94,17.61,17.61,0,0,0,1.7,3.75c0.36,0.6.75,1.19,1.16,1.76s0.85,1.14,1.32,1.67,1,1.06,1.45,1.57,1,1,1.57,1.46,1.1,0.91,1.68,1.34,1.16,0.83,1.78,1.2,1.23,0.73,1.86,1.06,1.28,0.62,1.94.9l-2.34,2.63L149,339a8.8,8.8,0,0,1-.47-1.27l-0.35-1.35a8,8,0,0,1-.18-1.43l-0.06-.73c0-.25,0-0.51.06-0.76a5.9,5.9,0,0,1,.27-1.51,6.16,6.16,0,0,1,.59-1.45,6.23,6.23,0,0,1,.89-1.29,6.34,6.34,0,0,1,1.11-1.05,6.51,6.51,0,0,1,1.25-.81l0.65-.34,0.68-.25a7.7,7.7,0,0,1,1.38-.38,8.82,8.82,0,0,1,1.41-.19,10.9,10.9,0,0,1,1.45,0c0.25,0,.5.08,0.75,0.12a3.42,3.42,0,0,1,.77.19,5.72,5.72,0,0,1,.8.32,9.76,9.76,0,0,1,.83.56l-2.52,1.22a7.87,7.87,0,0,1,.08-1.3,9.94,9.94,0,0,1,.25-1.21,9.2,9.2,0,0,1,.42-1.18,6.64,6.64,0,0,1,.62-1.12l0.37-.53,0.44-.48a5.25,5.25,0,0,1,1-.84,5.12,5.12,0,0,1,1.11-.64c0.19-.09.38-0.19,0.58-0.26l0.59-.17a6.1,6.1,0,0,1,1.19-.26l1.18-.12c0.39,0,.76,0,1.15,0a9.07,9.07,0,0,1,1.13.08l1.1,0.18a9.17,9.17,0,0,1,1.08.21l2.1,0.57-1,2.23c-2.16-1.46-4.24-3-6.33-4.49s-4.16-3-6.29-4.35c-1.07-.68-2.15-1.33-3.26-1.91-0.56-.29-1.11-0.58-1.69-0.82a16.12,16.12,0,0,0-1.73-.7,18.19,18.19,0,0,0-3.58-.91,15.54,15.54,0,0,0-1.83-.15c-0.61,0-1.22.06-1.84,0.09H145a0.63,0.63,0,0,1-.63-0.46,33.52,33.52,0,0,1-.87-5.07c-0.18-1.69-.31-3.37-0.39-5.06s-0.11-3.37-.1-5.06c0-.41,0-0.87,0-1.22a2.32,2.32,0,0,0-.38-1,2.4,2.4,0,0,0-.83-0.77,2.46,2.46,0,0,0-1.12-.3,0.2,0.2,0,0,1,0-.4h0Z" transform="translate(0 2.31)"/><path class="cls-39" d="M145,309.84c-1.08-3.52-1.68-11.18-1.68-15.89a2.64,2.64,0,0,0-2.64-2.64c0,18.58,2.68,22.14,5.63,24.75,3.68,3.25,5.28,4.66,13.49,12.41,0,0-.57-9.71,12.5-5.76C162.7,316.44,154.16,308.51,145,309.84Z" transform="translate(0 2.31)"/><path class="cls-39" d="M48.39,289A2.64,2.64,0,0,1,51,291.61c0,0.13-.06,11.5-2,17.56,11.15,6.14,2.2,22.74-11.19,27.82,5.61-10.87-6.11-13.11-8.62-10.87,8.21-7.75,9.81-9.16,13.49-12.41C45.71,311.11,48.39,307.54,48.39,289Z" transform="translate(0 2.31)"/><text class="cls-48" transform="translate(242.08 299.16)">F<tspan class="cls-49" x="73.03" y="0">e</tspan><tspan class="cls-49" x="149.83" y="0">s</tspan><tspan class="cls-50" x="210.34" y="0">t</tspan></text><text class="cls-51" transform="translate(543.24 244.72)"><tspan class="cls-50">U</tspan><tspan x="45.16" y="0">K</tspan></text><ellipse class="cls-52" cx="105.6" cy="100.86" rx="0.75" ry="1"/><ellipse class="cls-52" cx="93.34" cy="100.86" rx="0.75" ry="1"/><g class="cls-53"><text class="cls-54" transform="translate(175.02 163.49)">L<tspan class="cls-55" x="95.75" y="0">i</tspan><tspan class="cls-55" x="138.28" y="0">n</tspan><tspan class="cls-56" x="242.69" y="0">u</tspan><tspan class="cls-50" x="348.41" y="0">x</tspan></text></g></g></g></svg>